{"accessors" : [{"bufferView" : 0, "byteOffset" : 0, "componentType" : 5123, "count" : 7290, "type" : "SCALAR", "max" : [5832], "min" : [0]}, {"bufferView" : 1, "byteOffset" : 0, "componentType" : 5126, "count" : 5833, "type" : "VEC3", "max" : [11.616142272949219, 12.185490608215332, 9.65255355834961], "min" : [-8.574119567871094, -12.185490608215332, -9.65255355834961], "name" : "POSITION"}, {"bufferView" : 1, "byteOffset" : 12, "componentType" : 5126, "count" : 5833, "type" : "VEC2", "max" : [0.8310790061950684, -0.015204999595880508], "min" : [0.26487699151039124, -0.9825649857521057], "name" : "TEXCOORD_0"}], "asset" : {"generator" : "Aspose.3D 22.1", "version" : "2.0"}, "buffers" : [{"uri" : "data:application/octet-stream;base64,", "byteLength" : 160388}], "bufferViews" : [{"buffer" : 0, "byteOffset" : 0, "byteLength" : 14580, "target" : 34963}, {"buffer" : 0, "byteOffset" : 14584, "byteLength" : 145800, "byteStride" : 20, "target" : 34962}], "meshes" : [{"primitives" : [{"attributes" : {"POSITION" : 1, "TEXCOORD_0" : 2}, "indices" : 0, "mode" : 4}], "name" : ""}], "nodes" : [{"mesh" : 0, "name" : ""}], "scene" : 0, "scenes" : [{"nodes" : [0]}]}